<mxfile host="app.diagrams.net" modified="2024-06-06T21:21:56.626Z" agent="Mozilla/5.0 (Windows NT 10.0; Win64; x64) AppleWebKit/537.36 (KHTML, like Gecko) Chrome/125.0.0.0 Safari/537.36" etag="ETY1-VokLkgv2MQiNnh1" version="24.4.14" type="github">
  <diagram name="Page-1" id="7e0a89b8-554c-2b80-1dc8-d5c74ca68de4">
    <mxGraphModel dx="1050" dy="565" grid="1" gridSize="10" guides="1" tooltips="1" connect="1" arrows="1" fold="1" page="1" pageScale="1" pageWidth="1100" pageHeight="850" background="none" math="0" shadow="0">
      <root>
        <mxCell id="0" />
        <mxCell id="1" parent="0" />
        <mxCell id="IbLNzgQK0qaQEDbN3eBb-3" value="" style="pointerEvents=1;verticalLabelPosition=bottom;shadow=0;dashed=0;align=center;html=1;verticalAlign=top;shape=mxgraph.electrical.signal_sources.source;aspect=fixed;points=[[0.5,0,0],[1,0.5,0],[0.5,1,0],[0,0.5,0]];elSignalType=ac;strokeWidth=2;" vertex="1" parent="1">
          <mxGeometry x="130" y="70" width="60" height="60" as="geometry" />
        </mxCell>
        <mxCell id="IbLNzgQK0qaQEDbN3eBb-4" value="" style="pointerEvents=1;verticalLabelPosition=bottom;shadow=0;dashed=0;align=center;html=1;verticalAlign=top;shape=mxgraph.electrical.signal_sources.source;aspect=fixed;points=[[0.5,0,0],[1,0.5,0],[0.5,1,0],[0,0.5,0]];elSignalType=ac;" vertex="1" parent="1">
          <mxGeometry x="680" y="50" width="50" height="50" as="geometry" />
        </mxCell>
        <mxCell id="IbLNzgQK0qaQEDbN3eBb-7" value="" style="verticalLabelPosition=bottom;shadow=0;dashed=0;align=center;html=1;verticalAlign=top;shape=mxgraph.electrical.transmission.2_line_bus;direction=south;" vertex="1" parent="1">
          <mxGeometry x="130" y="200" width="60" height="200" as="geometry" />
        </mxCell>
        <mxCell id="IbLNzgQK0qaQEDbN3eBb-8" value="" style="endArrow=none;html=1;strokeWidth=3;rounded=0;curved=0;" edge="1" parent="1">
          <mxGeometry width="100" relative="1" as="geometry">
            <mxPoint x="110" y="200" as="sourcePoint" />
            <mxPoint x="210" y="200" as="targetPoint" />
          </mxGeometry>
        </mxCell>
        <mxCell id="IbLNzgQK0qaQEDbN3eBb-9" value="" style="endArrow=none;html=1;strokeWidth=3;rounded=0;" edge="1" parent="1">
          <mxGeometry width="100" relative="1" as="geometry">
            <mxPoint x="110" y="400" as="sourcePoint" />
            <mxPoint x="210" y="400" as="targetPoint" />
          </mxGeometry>
        </mxCell>
        <mxCell id="IbLNzgQK0qaQEDbN3eBb-11" value="" style="line;strokeWidth=1;direction=south;html=1;" vertex="1" parent="1">
          <mxGeometry x="155" y="130" width="10" height="70" as="geometry" />
        </mxCell>
        <mxCell id="IbLNzgQK0qaQEDbN3eBb-12" value="" style="endArrow=classicThin;html=1;strokeWidth=1;endSize=20;rounded=0;" edge="1" parent="1">
          <mxGeometry width="100" relative="1" as="geometry">
            <mxPoint x="159.5" y="400" as="sourcePoint" />
            <mxPoint x="159.5" y="470" as="targetPoint" />
          </mxGeometry>
        </mxCell>
        <mxCell id="IbLNzgQK0qaQEDbN3eBb-16" value="" style="verticalLabelPosition=bottom;shadow=0;dashed=0;align=center;html=1;verticalAlign=top;strokeWidth=2;shape=ellipse;" vertex="1" parent="1">
          <mxGeometry x="220" y="360" width="30" height="30" as="geometry" />
        </mxCell>
        <mxCell id="IbLNzgQK0qaQEDbN3eBb-17" value="" style="verticalLabelPosition=bottom;shadow=0;dashed=0;align=center;html=1;verticalAlign=top;strokeWidth=2;shape=ellipse;" vertex="1" parent="1">
          <mxGeometry x="220" y="160" width="30" height="30" as="geometry" />
        </mxCell>
      </root>
    </mxGraphModel>
  </diagram>
</mxfile>
